# xmcd
#
# Track frame offsets:
#	150
#	12215
#	29605
#	42217
#	55182
#	71542
#	84440
#	104842
#	118047
#	135220
#	148750
#	166192
#	180572
#	196297
#	209617
#	224392
#	241712
#
# Disc length: 3355 seconds
#
# Revision: 0
# Processed by: cddbd v1.5.2PL0 Copyright (c) Steve Scherf et al.
# Submitted via: EasyCDDAExtractor 11.1.0.1
#
DISCID=f00d1911
DTITLE=Various Artist - Nashville Music Express19
DYEAR=1900
DGENRE=country
TTITLE0=Rusty Adams - A tear dropped by
TTITLE1=Gene Watson - A way to survive
TTITLE2=Jamie Cotter - Back on track
TTITLE3=Billy Joe Burnette - Behind closed doors
TTITLE4=Randy Allen - Down home femme fatale
TTITLE5=Tammy Willingham - Expect for monday
TTITLE6=Valerie Vick - fairytale love
TTITLE7=Etta Marie - I'm not your beck and and call girl
TTITLE8=John Drake - It's all over butt the crying
TTITLE9=Clinton Gregory - Ladies choice
TTITLE10=John Dalgaard - Lady
TTITLE11=Anthony Carson - My still still jumps for joy
TTITLE12=The Hale Brothers - 9/10 of the law
TTITLE13=Dan Vaccaro - One day in time
TTITLE14=Alice Fay - The positive song
TTITLE15=Tiffany Lee - Unchained melody
TTITLE16=Kelly Moore - You ain't woman enough
EXTD=
EXTT0=
EXTT1=
EXTT2=
EXTT3=
EXTT4=
EXTT5=
EXTT6=
EXTT7=
EXTT8=
EXTT9=
EXTT10=
EXTT11=
EXTT12=
EXTT13=
EXTT14=
EXTT15=
EXTT16=
PLAYORDER=
